{
    "asset" : {
        "generator" : "Khronos glTF Blender I/O v1.0.5",
        "version" : "2.0"
    },
    "scene" : 0,
    "scenes" : [
        {
            "name" : "Scene",
            "nodes" : [
                3
            ]
        }
    ],
    "nodes" : [
        {
            "name" : "Bone.001",
            "rotation" : [
                4.7673143654947125e-08,
                0.7045652866363525,
                4.733228564646197e-08,
                0.7096391320228577
            ],
            "translation" : [
                0,
                2.799999713897705,
                0
            ]
        },
        {
            "children" : [
                0
            ],
            "name" : "Bone"
        },
        {
            "mesh" : 0,
            "name" : "armadillo.001",
            "skin" : 0
        },
        {
            "children" : [
                2,
                1
            ],
            "name" : "Armature",
            "translation" : [
                0,
                0.5999999642372131,
                -0.75
            ]
        }
    ],
    "materials" : [
        {
            "doubleSided" : true,
            "name" : "Default_OBJ.001",
            "pbrMetallicRoughness" : {
                "baseColorFactor" : [
                    0.800000011920929,
                    0.800000011920929,
                    0.800000011920929,
                    1
                ],
                "metallicFactor" : 0,
                "roughnessFactor" : 0.5
            }
        }
    ],
    "meshes" : [
        {
            "name" : "armadillo.001",
            "primitives" : [
                {
                    "attributes" : {
                        "POSITION" : 0,
                        "NORMAL" : 1,
                        "JOINTS_0" : 2,
                        "WEIGHTS_0" : 3
                    },
                    "indices" : 4,
                    "material" : 0
                }
            ]
        }
    ],
    "skins" : [
        {
            "inverseBindMatrices" : 5,
            "joints" : [
                1,
                0
            ],
            "name" : "Armature"
        }
    ],
    "accessors" : [
        {
            "bufferView" : 0,
            "componentType" : 5126,
            "count" : 51010,
            "max" : [
                6.355954170227051,
                9.71281623840332,
                4.9486613273620605
            ],
            "min" : [
                -6.300934791564941,
                -5.2954912185668945,
                -3.9150848388671875
            ],
            "type" : "VEC3"
        },
        {
            "bufferView" : 1,
            "componentType" : 5126,
            "count" : 51010,
            "type" : "VEC3"
        },
        {
            "bufferView" : 2,
            "componentType" : 5123,
            "count" : 51010,
            "type" : "VEC4"
        },
        {
            "bufferView" : 3,
            "componentType" : 5126,
            "count" : 51010,
            "type" : "VEC4"
        },
        {
            "bufferView" : 4,
            "componentType" : 5123,
            "count" : 306048,
            "type" : "SCALAR"
        },
        {
            "bufferView" : 5,
            "componentType" : 5126,
            "count" : 2,
            "type" : "MAT4"
        }
    ],
    "bufferViews" : [
        {
            "buffer" : 0,
            "byteLength" : 612120,
            "byteOffset" : 0
        },
        {
            "buffer" : 0,
            "byteLength" : 612120,
            "byteOffset" : 612120
        },
        {
            "buffer" : 0,
            "byteLength" : 408080,
            "byteOffset" : 1224240
        },
        {
            "buffer" : 0,
            "byteLength" : 816160,
            "byteOffset" : 1632320
        },
        {
            "buffer" : 0,
            "byteLength" : 612096,
            "byteOffset" : 2448480
        },
        {
            "buffer" : 0,
            "byteLength" : 128,
            "byteOffset" : 3060576
        }
    ],
    "buffers" : [
        {
            "byteLength" : 3060704,
            "uri" : "armadillo_with_skeleton_and_correct_weights.bin"
        }
    ]
}
